# xmcd
#
# Track frame offsets:
#	150
#	14880
#	27535
#	38885
#	56527
#	80292
#	93327
#	107877
#	120967
#	137460
#	154600
#
# Disc length: 2266 seconds
#
# Revision: 0
# Processed by: cddbd v1.5.1PL0 Copyright (c) Steve Scherf et al.
# Submitted via: audiograbber 1.82.02
#
DISCID=8508d80b
DTITLE=Shelly Streeter - Call Me A Wildfire
DYEAR=1995
DGENRE=Country
TTITLE0=Call Me A Wildfire
TTITLE1=Go Down Swinin
TTITLE2=Purple Bows
TTITLE3=White Lace, Promises
TTITLE4=Oh Mamacita
TTITLE5=Broken Dreams
TTITLE6=Mama Dome Told Me
TTITLE7=Lonesome Cowboy
TTITLE8=Sweet Love Tonight
TTITLE9=Rock The Country
TTITLE10=Candle Light
EXTD=
EXTT0=
EXTT1=
EXTT2=
EXTT3=
EXTT4=
EXTT5=
EXTT6=
EXTT7=
EXTT8=
EXTT9=
EXTT10=
PLAYORDER=
